<mxfile host="app.diagrams.net" agent="Mozilla/5.0 (Windows NT 10.0; Win64; x64) AppleWebKit/537.36 (KHTML, like Gecko) Chrome/132.0.0.0 Safari/537.36" version="26.0.11">
  <diagram name="페이지-1" id="jbhDUAzXAAZYgeEzCaeY">
    <mxGraphModel dx="989" dy="532" grid="1" gridSize="10" guides="1" tooltips="1" connect="1" arrows="1" fold="1" page="1" pageScale="1" pageWidth="827" pageHeight="1169" math="0" shadow="0">
      <root>
        <mxCell id="0" />
        <mxCell id="1" parent="0" />
        <mxCell id="_PZujaZr9tZfyqmxtlXS-6" value="" style="edgeStyle=orthogonalEdgeStyle;rounded=0;orthogonalLoop=1;jettySize=auto;html=1;entryX=0.412;entryY=0.017;entryDx=0;entryDy=0;entryPerimeter=0;fillColor=#f8cecc;strokeColor=#b85450;" edge="1" parent="1" source="_PZujaZr9tZfyqmxtlXS-2" target="_PZujaZr9tZfyqmxtlXS-3">
          <mxGeometry relative="1" as="geometry">
            <mxPoint x="200" y="290" as="targetPoint" />
          </mxGeometry>
        </mxCell>
        <mxCell id="_PZujaZr9tZfyqmxtlXS-20" value="쓰기 연산" style="edgeLabel;html=1;align=center;verticalAlign=middle;resizable=0;points=[];" vertex="1" connectable="0" parent="_PZujaZr9tZfyqmxtlXS-6">
          <mxGeometry x="-0.5639" y="-1" relative="1" as="geometry">
            <mxPoint x="38" y="1" as="offset" />
          </mxGeometry>
        </mxCell>
        <mxCell id="_PZujaZr9tZfyqmxtlXS-14" value="" style="edgeStyle=orthogonalEdgeStyle;rounded=0;orthogonalLoop=1;jettySize=auto;html=1;entryX=1;entryY=0.5;entryDx=0;entryDy=0;exitX=1;exitY=0.5;exitDx=0;exitDy=0;fillColor=#dae8fc;strokeColor=#6c8ebf;" edge="1" parent="1" source="_PZujaZr9tZfyqmxtlXS-2" target="_PZujaZr9tZfyqmxtlXS-8">
          <mxGeometry relative="1" as="geometry">
            <mxPoint x="780" y="680" as="targetPoint" />
            <Array as="points">
              <mxPoint x="780" y="105" />
              <mxPoint x="780" y="663" />
            </Array>
          </mxGeometry>
        </mxCell>
        <mxCell id="_PZujaZr9tZfyqmxtlXS-17" value="" style="edgeStyle=orthogonalEdgeStyle;rounded=0;orthogonalLoop=1;jettySize=auto;html=1;entryX=1;entryY=0.5;entryDx=0;entryDy=0;fillColor=#dae8fc;strokeColor=#6c8ebf;" edge="1" parent="1" source="_PZujaZr9tZfyqmxtlXS-2" target="_PZujaZr9tZfyqmxtlXS-7">
          <mxGeometry relative="1" as="geometry">
            <mxPoint x="700" y="540" as="targetPoint" />
            <Array as="points">
              <mxPoint x="730" y="105" />
              <mxPoint x="730" y="513" />
            </Array>
          </mxGeometry>
        </mxCell>
        <mxCell id="_PZujaZr9tZfyqmxtlXS-2" value="" style="rounded=1;whiteSpace=wrap;html=1;dashed=1;" vertex="1" parent="1">
          <mxGeometry x="329" y="20" width="170" height="170" as="geometry" />
        </mxCell>
        <mxCell id="_PZujaZr9tZfyqmxtlXS-1" value="웹 서버" style="image;aspect=fixed;perimeter=ellipsePerimeter;html=1;align=center;shadow=0;dashed=0;spacingTop=3;image=img/lib/active_directory/server_farm.svg;" vertex="1" parent="1">
          <mxGeometry x="369" y="50" width="90" height="90" as="geometry" />
        </mxCell>
        <mxCell id="_PZujaZr9tZfyqmxtlXS-3" value="주 데이터베이스 서버" style="image;aspect=fixed;perimeter=ellipsePerimeter;html=1;align=center;shadow=0;dashed=0;spacingTop=3;image=img/lib/active_directory/database_server.svg;" vertex="1" parent="1">
          <mxGeometry x="130" y="470" width="71" height="86.59" as="geometry" />
        </mxCell>
        <mxCell id="_PZujaZr9tZfyqmxtlXS-4" value="부 데이터베이스 서버1" style="image;aspect=fixed;perimeter=ellipsePerimeter;html=1;align=center;shadow=0;dashed=0;spacingTop=3;image=img/lib/active_directory/database_server.svg;" vertex="1" parent="1">
          <mxGeometry x="480" y="320" width="71" height="86.59" as="geometry" />
        </mxCell>
        <mxCell id="_PZujaZr9tZfyqmxtlXS-7" value="부 데이터베이스 서버2" style="image;aspect=fixed;perimeter=ellipsePerimeter;html=1;align=center;shadow=0;dashed=0;spacingTop=3;image=img/lib/active_directory/database_server.svg;" vertex="1" parent="1">
          <mxGeometry x="480" y="470" width="71" height="86.59" as="geometry" />
        </mxCell>
        <mxCell id="_PZujaZr9tZfyqmxtlXS-8" value="부 데이터베이스 서버3" style="image;aspect=fixed;perimeter=ellipsePerimeter;html=1;align=center;shadow=0;dashed=0;spacingTop=3;image=img/lib/active_directory/database_server.svg;" vertex="1" parent="1">
          <mxGeometry x="480" y="620" width="71" height="86.59" as="geometry" />
        </mxCell>
        <mxCell id="_PZujaZr9tZfyqmxtlXS-18" value="" style="edgeStyle=orthogonalEdgeStyle;rounded=0;orthogonalLoop=1;jettySize=auto;html=1;exitX=1;exitY=0.5;exitDx=0;exitDy=0;fillColor=#dae8fc;strokeColor=#6c8ebf;" edge="1" parent="1" source="_PZujaZr9tZfyqmxtlXS-2" target="_PZujaZr9tZfyqmxtlXS-4">
          <mxGeometry relative="1" as="geometry">
            <mxPoint x="509" y="110" as="sourcePoint" />
            <mxPoint x="570" y="365" as="targetPoint" />
            <Array as="points">
              <mxPoint x="680" y="105" />
              <mxPoint x="680" y="365" />
            </Array>
          </mxGeometry>
        </mxCell>
        <mxCell id="_PZujaZr9tZfyqmxtlXS-19" value="읽기 연산" style="edgeLabel;html=1;align=center;verticalAlign=middle;resizable=0;points=[];" vertex="1" connectable="0" parent="_PZujaZr9tZfyqmxtlXS-18">
          <mxGeometry x="-0.7376" y="3" relative="1" as="geometry">
            <mxPoint y="3" as="offset" />
          </mxGeometry>
        </mxCell>
        <mxCell id="_PZujaZr9tZfyqmxtlXS-21" value="" style="endArrow=classic;startArrow=classic;html=1;rounded=0;exitX=1;exitY=0.5;exitDx=0;exitDy=0;entryX=0;entryY=0.5;entryDx=0;entryDy=0;fillColor=#d5e8d4;strokeColor=#82b366;" edge="1" parent="1" source="_PZujaZr9tZfyqmxtlXS-3" target="_PZujaZr9tZfyqmxtlXS-7">
          <mxGeometry width="50" height="50" relative="1" as="geometry">
            <mxPoint x="290" y="520" as="sourcePoint" />
            <mxPoint x="340" y="470" as="targetPoint" />
          </mxGeometry>
        </mxCell>
        <mxCell id="_PZujaZr9tZfyqmxtlXS-23" value="DB 다중화" style="edgeLabel;html=1;align=center;verticalAlign=middle;resizable=0;points=[];" vertex="1" connectable="0" parent="_PZujaZr9tZfyqmxtlXS-21">
          <mxGeometry x="-0.5081" y="1" relative="1" as="geometry">
            <mxPoint x="11" as="offset" />
          </mxGeometry>
        </mxCell>
        <mxCell id="_PZujaZr9tZfyqmxtlXS-22" value="" style="endArrow=classic;startArrow=classic;html=1;rounded=0;entryX=0;entryY=0.5;entryDx=0;entryDy=0;exitX=0;exitY=0.5;exitDx=0;exitDy=0;fillColor=#d5e8d4;strokeColor=#82b366;" edge="1" parent="1" source="_PZujaZr9tZfyqmxtlXS-8" target="_PZujaZr9tZfyqmxtlXS-4">
          <mxGeometry width="50" height="50" relative="1" as="geometry">
            <mxPoint x="280" y="670" as="sourcePoint" />
            <mxPoint x="280" y="370" as="targetPoint" />
            <Array as="points">
              <mxPoint x="350" y="663" />
              <mxPoint x="350" y="363" />
            </Array>
          </mxGeometry>
        </mxCell>
      </root>
    </mxGraphModel>
  </diagram>
</mxfile>
